<mxfile host="app.diagrams.net" agent="Mozilla/5.0 (Windows NT 10.0; Win64; x64) AppleWebKit/537.36 (KHTML, like Gecko) Chrome/134.0.0.0 Safari/537.36" version="26.1.0" pages="2">
  <diagram name="Page-1" id="ErgFQ5Vae97GkdIuCju3">
    <mxGraphModel dx="1315" dy="292" grid="0" gridSize="10" guides="1" tooltips="1" connect="1" arrows="1" fold="1" page="0" pageScale="1" pageWidth="850" pageHeight="1100" math="0" shadow="0">
      <root>
        <mxCell id="0" />
        <mxCell id="1" parent="0" />
        <mxCell id="XmXFPDjZj6QL2YAs0ic8-2" value="" style="rounded=1;whiteSpace=wrap;html=1;dashed=1;fillColor=none;" vertex="1" parent="1">
          <mxGeometry x="10" y="200" width="820" height="570" as="geometry" />
        </mxCell>
        <mxCell id="XmXFPDjZj6QL2YAs0ic8-1" value="" style="rounded=1;whiteSpace=wrap;html=1;dashed=1;fillColor=none;" vertex="1" parent="1">
          <mxGeometry x="-470" y="200" width="400" height="570" as="geometry" />
        </mxCell>
        <mxCell id="XmXFPDjZj6QL2YAs0ic8-3" value="" style="rounded=0;whiteSpace=wrap;html=1;fillColor=none;strokeColor=#b85450;dashed=1;" vertex="1" parent="1">
          <mxGeometry x="20" y="290" width="310" height="360" as="geometry" />
        </mxCell>
        <mxCell id="XmXFPDjZj6QL2YAs0ic8-4" value="" style="edgeStyle=orthogonalEdgeStyle;rounded=0;orthogonalLoop=1;jettySize=auto;html=1;entryX=0.48;entryY=0.08;entryDx=0;entryDy=0;entryPerimeter=0;" edge="1" parent="1" source="XmXFPDjZj6QL2YAs0ic8-10" target="EXuGL9rm_F_Fx5JCLP6b-1">
          <mxGeometry relative="1" as="geometry" />
        </mxCell>
        <mxCell id="XmXFPDjZj6QL2YAs0ic8-5" value="" style="edgeStyle=orthogonalEdgeStyle;rounded=0;orthogonalLoop=1;jettySize=auto;html=1;" edge="1" parent="1" source="XmXFPDjZj6QL2YAs0ic8-10" target="XmXFPDjZj6QL2YAs0ic8-16">
          <mxGeometry relative="1" as="geometry" />
        </mxCell>
        <mxCell id="XmXFPDjZj6QL2YAs0ic8-6" style="edgeStyle=orthogonalEdgeStyle;rounded=0;orthogonalLoop=1;jettySize=auto;html=1;exitX=0.5;exitY=0;exitDx=0;exitDy=0;" edge="1" parent="1" source="XmXFPDjZj6QL2YAs0ic8-10">
          <mxGeometry relative="1" as="geometry">
            <mxPoint x="420" y="120" as="targetPoint" />
          </mxGeometry>
        </mxCell>
        <mxCell id="XmXFPDjZj6QL2YAs0ic8-7" value="CommandResponseDto&lt;br&gt;QueryResponseDto" style="edgeLabel;html=1;align=center;verticalAlign=middle;resizable=0;points=[];" vertex="1" connectable="0" parent="XmXFPDjZj6QL2YAs0ic8-6">
          <mxGeometry x="0.2124" y="-2" relative="1" as="geometry">
            <mxPoint as="offset" />
          </mxGeometry>
        </mxCell>
        <mxCell id="XmXFPDjZj6QL2YAs0ic8-8" style="edgeStyle=orthogonalEdgeStyle;rounded=0;orthogonalLoop=1;jettySize=auto;html=1;entryX=0.75;entryY=0;entryDx=0;entryDy=0;" edge="1" parent="1" target="XmXFPDjZj6QL2YAs0ic8-10">
          <mxGeometry relative="1" as="geometry">
            <mxPoint x="620" y="120" as="targetPoint" />
            <mxPoint x="610" y="120" as="sourcePoint" />
          </mxGeometry>
        </mxCell>
        <mxCell id="XmXFPDjZj6QL2YAs0ic8-9" value="CommandRequestDto&lt;br&gt;QueryRequestDto" style="edgeLabel;html=1;align=center;verticalAlign=middle;resizable=0;points=[];" vertex="1" connectable="0" parent="XmXFPDjZj6QL2YAs0ic8-8">
          <mxGeometry x="-0.2213" y="3" relative="1" as="geometry">
            <mxPoint x="3" y="-2" as="offset" />
          </mxGeometry>
        </mxCell>
        <mxCell id="XmXFPDjZj6QL2YAs0ic8-10" value="WebApi&lt;br&gt;(REPR Pattern?)" style="rounded=0;whiteSpace=wrap;html=1;fillColor=#d5e8d4;strokeColor=#82b366;" vertex="1" parent="1">
          <mxGeometry x="40" y="230" width="760" height="50" as="geometry" />
        </mxCell>
        <mxCell id="XmXFPDjZj6QL2YAs0ic8-11" value="" style="edgeStyle=orthogonalEdgeStyle;rounded=0;orthogonalLoop=1;jettySize=auto;html=1;" edge="1" parent="1" source="XmXFPDjZj6QL2YAs0ic8-14" target="XmXFPDjZj6QL2YAs0ic8-29">
          <mxGeometry relative="1" as="geometry" />
        </mxCell>
        <mxCell id="XmXFPDjZj6QL2YAs0ic8-12" value="" style="edgeStyle=orthogonalEdgeStyle;rounded=0;orthogonalLoop=1;jettySize=auto;html=1;" edge="1" parent="1" source="XmXFPDjZj6QL2YAs0ic8-14" target="XmXFPDjZj6QL2YAs0ic8-29">
          <mxGeometry relative="1" as="geometry" />
        </mxCell>
        <mxCell id="XmXFPDjZj6QL2YAs0ic8-13" value="" style="edgeStyle=orthogonalEdgeStyle;rounded=0;orthogonalLoop=1;jettySize=auto;html=1;" edge="1" parent="1" source="XmXFPDjZj6QL2YAs0ic8-14" target="XmXFPDjZj6QL2YAs0ic8-29">
          <mxGeometry relative="1" as="geometry" />
        </mxCell>
        <mxCell id="XmXFPDjZj6QL2YAs0ic8-14" value="Domain2.App" style="whiteSpace=wrap;html=1;fillColor=#d5e8d4;strokeColor=#82b366;rounded=0;" vertex="1" parent="1">
          <mxGeometry x="640" y="345" width="120" height="60" as="geometry" />
        </mxCell>
        <mxCell id="XmXFPDjZj6QL2YAs0ic8-15" value="" style="edgeStyle=orthogonalEdgeStyle;rounded=0;orthogonalLoop=1;jettySize=auto;html=1;" edge="1" parent="1" source="XmXFPDjZj6QL2YAs0ic8-16" target="XmXFPDjZj6QL2YAs0ic8-23">
          <mxGeometry relative="1" as="geometry" />
        </mxCell>
        <mxCell id="XmXFPDjZj6QL2YAs0ic8-16" value="Domain1.App" style="whiteSpace=wrap;html=1;fillColor=#d5e8d4;strokeColor=#82b366;rounded=0;" vertex="1" parent="1">
          <mxGeometry x="80" y="320" width="120" height="60" as="geometry" />
        </mxCell>
        <mxCell id="XmXFPDjZj6QL2YAs0ic8-17" value="" style="edgeStyle=orthogonalEdgeStyle;rounded=0;orthogonalLoop=1;jettySize=auto;html=1;entryX=0;entryY=0.5;entryDx=0;entryDy=0;" edge="1" parent="1" source="XmXFPDjZj6QL2YAs0ic8-23" target="XmXFPDjZj6QL2YAs0ic8-33">
          <mxGeometry relative="1" as="geometry" />
        </mxCell>
        <mxCell id="XmXFPDjZj6QL2YAs0ic8-18" style="edgeStyle=orthogonalEdgeStyle;rounded=0;orthogonalLoop=1;jettySize=auto;html=1;" edge="1" parent="1" source="XmXFPDjZj6QL2YAs0ic8-23" target="XmXFPDjZj6QL2YAs0ic8-35">
          <mxGeometry relative="1" as="geometry" />
        </mxCell>
        <mxCell id="XmXFPDjZj6QL2YAs0ic8-19" value="DataModelDto" style="edgeLabel;html=1;align=center;verticalAlign=middle;resizable=0;points=[];" vertex="1" connectable="0" parent="XmXFPDjZj6QL2YAs0ic8-18">
          <mxGeometry x="0.3724" y="2" relative="1" as="geometry">
            <mxPoint as="offset" />
          </mxGeometry>
        </mxCell>
        <mxCell id="XmXFPDjZj6QL2YAs0ic8-20" value="" style="edgeStyle=orthogonalEdgeStyle;rounded=0;orthogonalLoop=1;jettySize=auto;html=1;" edge="1" parent="1" source="XmXFPDjZj6QL2YAs0ic8-24" target="XmXFPDjZj6QL2YAs0ic8-36">
          <mxGeometry relative="1" as="geometry">
            <Array as="points">
              <mxPoint x="100" y="640" />
            </Array>
          </mxGeometry>
        </mxCell>
        <mxCell id="XmXFPDjZj6QL2YAs0ic8-21" style="edgeStyle=orthogonalEdgeStyle;rounded=1;orthogonalLoop=1;jettySize=auto;html=1;exitX=0.5;exitY=1;exitDx=0;exitDy=0;entryX=0.5;entryY=0;entryDx=0;entryDy=0;curved=0;strokeColor=#7F00FF;strokeWidth=3;" edge="1" parent="1" source="XmXFPDjZj6QL2YAs0ic8-23" target="XmXFPDjZj6QL2YAs0ic8-49">
          <mxGeometry relative="1" as="geometry">
            <mxPoint x="-40" y="408" as="targetPoint" />
            <Array as="points">
              <mxPoint x="260" y="520" />
              <mxPoint x="-30" y="520" />
              <mxPoint x="-30" y="150" />
              <mxPoint x="-280" y="150" />
            </Array>
          </mxGeometry>
        </mxCell>
        <mxCell id="XmXFPDjZj6QL2YAs0ic8-22" value="RequestDTO / Response DTO" style="edgeLabel;html=1;align=center;verticalAlign=middle;resizable=0;points=[];" vertex="1" connectable="0" parent="XmXFPDjZj6QL2YAs0ic8-21">
          <mxGeometry x="0.903" y="1" relative="1" as="geometry">
            <mxPoint as="offset" />
          </mxGeometry>
        </mxCell>
        <mxCell id="XmXFPDjZj6QL2YAs0ic8-23" value="Domain1.&lt;br&gt;Infrastructure" style="whiteSpace=wrap;html=1;fillColor=#d5e8d4;strokeColor=#82b366;rounded=0;" vertex="1" parent="1">
          <mxGeometry x="200" y="440" width="120" height="60" as="geometry" />
        </mxCell>
        <mxCell id="XmXFPDjZj6QL2YAs0ic8-24" value="Domain1.&lt;br&gt;Domain" style="whiteSpace=wrap;html=1;fillColor=#d5e8d4;strokeColor=#82b366;rounded=0;" vertex="1" parent="1">
          <mxGeometry x="40" y="440" width="120" height="60" as="geometry" />
        </mxCell>
        <mxCell id="XmXFPDjZj6QL2YAs0ic8-25" value="" style="endArrow=classic;html=1;rounded=0;entryX=1;entryY=0.5;entryDx=0;entryDy=0;" edge="1" parent="1" source="XmXFPDjZj6QL2YAs0ic8-23" target="XmXFPDjZj6QL2YAs0ic8-24">
          <mxGeometry width="50" height="50" relative="1" as="geometry">
            <mxPoint x="360" y="410" as="sourcePoint" />
            <mxPoint x="410" y="360" as="targetPoint" />
          </mxGeometry>
        </mxCell>
        <mxCell id="XmXFPDjZj6QL2YAs0ic8-26" style="edgeStyle=orthogonalEdgeStyle;rounded=0;orthogonalLoop=1;jettySize=auto;html=1;entryX=1;entryY=0.5;entryDx=0;entryDy=0;" edge="1" parent="1" source="XmXFPDjZj6QL2YAs0ic8-29" target="XmXFPDjZj6QL2YAs0ic8-33">
          <mxGeometry relative="1" as="geometry" />
        </mxCell>
        <mxCell id="XmXFPDjZj6QL2YAs0ic8-27" style="edgeStyle=orthogonalEdgeStyle;rounded=0;orthogonalLoop=1;jettySize=auto;html=1;entryX=0.5;entryY=0;entryDx=0;entryDy=0;entryPerimeter=0;exitX=0.75;exitY=1;exitDx=0;exitDy=0;" edge="1" parent="1" source="XmXFPDjZj6QL2YAs0ic8-29" target="XmXFPDjZj6QL2YAs0ic8-34">
          <mxGeometry relative="1" as="geometry">
            <mxPoint x="580" y="820" as="targetPoint" />
          </mxGeometry>
        </mxCell>
        <mxCell id="XmXFPDjZj6QL2YAs0ic8-28" value="DataModelDto" style="edgeLabel;html=1;align=center;verticalAlign=middle;resizable=0;points=[];" vertex="1" connectable="0" parent="XmXFPDjZj6QL2YAs0ic8-27">
          <mxGeometry x="0.3333" y="2" relative="1" as="geometry">
            <mxPoint as="offset" />
          </mxGeometry>
        </mxCell>
        <mxCell id="XmXFPDjZj6QL2YAs0ic8-29" value="Domain2.Infrastructure" style="whiteSpace=wrap;html=1;fillColor=#d5e8d4;strokeColor=#82b366;rounded=0;" vertex="1" parent="1">
          <mxGeometry x="520" y="440" width="120" height="60" as="geometry" />
        </mxCell>
        <mxCell id="XmXFPDjZj6QL2YAs0ic8-30" style="edgeStyle=orthogonalEdgeStyle;rounded=0;orthogonalLoop=1;jettySize=auto;html=1;exitX=0.5;exitY=1;exitDx=0;exitDy=0;entryX=1;entryY=0.5;entryDx=0;entryDy=0;" edge="1" parent="1" source="XmXFPDjZj6QL2YAs0ic8-31" target="XmXFPDjZj6QL2YAs0ic8-36">
          <mxGeometry relative="1" as="geometry" />
        </mxCell>
        <mxCell id="XmXFPDjZj6QL2YAs0ic8-31" value="Domain2.Domain" style="whiteSpace=wrap;html=1;fillColor=#d5e8d4;strokeColor=#82b366;rounded=0;" vertex="1" parent="1">
          <mxGeometry x="680" y="440" width="120" height="60" as="geometry" />
        </mxCell>
        <mxCell id="XmXFPDjZj6QL2YAs0ic8-32" value="" style="endArrow=classic;html=1;rounded=0;exitX=1;exitY=0.5;exitDx=0;exitDy=0;" edge="1" parent="1" source="XmXFPDjZj6QL2YAs0ic8-29" target="XmXFPDjZj6QL2YAs0ic8-31">
          <mxGeometry width="50" height="50" relative="1" as="geometry">
            <mxPoint x="580" y="580" as="sourcePoint" />
            <mxPoint x="630" y="530" as="targetPoint" />
          </mxGeometry>
        </mxCell>
        <mxCell id="XmXFPDjZj6QL2YAs0ic8-33" value="Contracts.Internal&lt;br&gt;(Primitives Only)" style="whiteSpace=wrap;html=1;fillColor=#d5e8d4;strokeColor=#82b366;rounded=0;" vertex="1" parent="1">
          <mxGeometry x="360" y="510" width="120" height="60" as="geometry" />
        </mxCell>
        <mxCell id="XmXFPDjZj6QL2YAs0ic8-34" value="" style="shape=cylinder3;whiteSpace=wrap;html=1;boundedLbl=1;backgroundOutline=1;size=15;" vertex="1" parent="1">
          <mxGeometry x="580" y="790" width="60" height="80" as="geometry" />
        </mxCell>
        <mxCell id="XmXFPDjZj6QL2YAs0ic8-35" value="" style="shape=cylinder3;whiteSpace=wrap;html=1;boundedLbl=1;backgroundOutline=1;size=15;" vertex="1" parent="1">
          <mxGeometry x="230" y="790" width="60" height="80" as="geometry" />
        </mxCell>
        <mxCell id="XmXFPDjZj6QL2YAs0ic8-36" value="BuildingBlocks&lt;br&gt;ValueObjects" style="whiteSpace=wrap;html=1;fillColor=#d5e8d4;strokeColor=#82b366;rounded=0;" vertex="1" parent="1">
          <mxGeometry x="360" y="610" width="120" height="60" as="geometry" />
        </mxCell>
        <mxCell id="XmXFPDjZj6QL2YAs0ic8-37" value="" style="edgeStyle=orthogonalEdgeStyle;rounded=0;orthogonalLoop=1;jettySize=auto;html=1;" edge="1" parent="1" source="XmXFPDjZj6QL2YAs0ic8-39" target="XmXFPDjZj6QL2YAs0ic8-43">
          <mxGeometry relative="1" as="geometry" />
        </mxCell>
        <mxCell id="XmXFPDjZj6QL2YAs0ic8-38" value="" style="edgeStyle=orthogonalEdgeStyle;rounded=0;orthogonalLoop=1;jettySize=auto;html=1;" edge="1" parent="1" source="XmXFPDjZj6QL2YAs0ic8-39" target="XmXFPDjZj6QL2YAs0ic8-44">
          <mxGeometry relative="1" as="geometry" />
        </mxCell>
        <mxCell id="XmXFPDjZj6QL2YAs0ic8-39" value="Microservice1.App" style="whiteSpace=wrap;html=1;fillColor=#d5e8d4;strokeColor=#82b366;rounded=0;" vertex="1" parent="1">
          <mxGeometry x="-340" y="320" width="120" height="60" as="geometry" />
        </mxCell>
        <mxCell id="XmXFPDjZj6QL2YAs0ic8-40" style="edgeStyle=orthogonalEdgeStyle;rounded=0;orthogonalLoop=1;jettySize=auto;html=1;" edge="1" parent="1" source="XmXFPDjZj6QL2YAs0ic8-43" target="XmXFPDjZj6QL2YAs0ic8-46">
          <mxGeometry relative="1" as="geometry" />
        </mxCell>
        <mxCell id="XmXFPDjZj6QL2YAs0ic8-41" value="DataModelDto" style="edgeLabel;html=1;align=center;verticalAlign=middle;resizable=0;points=[];" vertex="1" connectable="0" parent="XmXFPDjZj6QL2YAs0ic8-40">
          <mxGeometry x="0.3172" y="2" relative="1" as="geometry">
            <mxPoint as="offset" />
          </mxGeometry>
        </mxCell>
        <mxCell id="XmXFPDjZj6QL2YAs0ic8-42" value="" style="edgeStyle=orthogonalEdgeStyle;rounded=0;orthogonalLoop=1;jettySize=auto;html=1;" edge="1" parent="1" source="XmXFPDjZj6QL2YAs0ic8-44" target="XmXFPDjZj6QL2YAs0ic8-47">
          <mxGeometry relative="1" as="geometry" />
        </mxCell>
        <mxCell id="XmXFPDjZj6QL2YAs0ic8-43" value="Microservice1.&lt;br&gt;Infrastructure" style="whiteSpace=wrap;html=1;fillColor=#d5e8d4;strokeColor=#82b366;rounded=0;" vertex="1" parent="1">
          <mxGeometry x="-220" y="440" width="120" height="60" as="geometry" />
        </mxCell>
        <mxCell id="XmXFPDjZj6QL2YAs0ic8-44" value="Microservice1.&lt;br&gt;Domain" style="whiteSpace=wrap;html=1;fillColor=#d5e8d4;strokeColor=#82b366;rounded=0;" vertex="1" parent="1">
          <mxGeometry x="-380" y="440" width="120" height="60" as="geometry" />
        </mxCell>
        <mxCell id="XmXFPDjZj6QL2YAs0ic8-45" value="" style="endArrow=classic;html=1;rounded=0;entryX=1;entryY=0.5;entryDx=0;entryDy=0;" edge="1" parent="1" source="XmXFPDjZj6QL2YAs0ic8-43" target="XmXFPDjZj6QL2YAs0ic8-44">
          <mxGeometry width="50" height="50" relative="1" as="geometry">
            <mxPoint x="-60" y="410" as="sourcePoint" />
            <mxPoint x="-10" y="360" as="targetPoint" />
          </mxGeometry>
        </mxCell>
        <mxCell id="XmXFPDjZj6QL2YAs0ic8-46" value="" style="shape=cylinder3;whiteSpace=wrap;html=1;boundedLbl=1;backgroundOutline=1;size=15;" vertex="1" parent="1">
          <mxGeometry x="-190" y="790" width="60" height="80" as="geometry" />
        </mxCell>
        <mxCell id="XmXFPDjZj6QL2YAs0ic8-47" value="Microservice.BuildingBlocks" style="whiteSpace=wrap;html=1;fillColor=#d5e8d4;strokeColor=#82b366;rounded=0;" vertex="1" parent="1">
          <mxGeometry x="-410" y="570" width="180" height="60" as="geometry" />
        </mxCell>
        <mxCell id="XmXFPDjZj6QL2YAs0ic8-48" style="edgeStyle=orthogonalEdgeStyle;rounded=0;orthogonalLoop=1;jettySize=auto;html=1;" edge="1" parent="1" source="XmXFPDjZj6QL2YAs0ic8-49" target="XmXFPDjZj6QL2YAs0ic8-39">
          <mxGeometry relative="1" as="geometry" />
        </mxCell>
        <mxCell id="XmXFPDjZj6QL2YAs0ic8-49" value="WebApi&lt;br&gt;(REPR Pattern?)" style="rounded=0;whiteSpace=wrap;html=1;fillColor=#d5e8d4;strokeColor=#82b366;" vertex="1" parent="1">
          <mxGeometry x="-425" y="230" width="290" height="50" as="geometry" />
        </mxCell>
        <mxCell id="XmXFPDjZj6QL2YAs0ic8-50" value="Core holds items that do not have an a &quot;domain&quot; yet.&lt;div&gt;&lt;br&gt;&lt;/div&gt;&lt;div&gt;It is a catch all&lt;/div&gt;" style="whiteSpace=wrap;html=1;shape=mxgraph.basic.document;fillColor=#fff2cc;strokeColor=#d6b656;align=left;" vertex="1" parent="1">
          <mxGeometry x="780" y="310" width="100" height="100" as="geometry" />
        </mxCell>
        <mxCell id="XmXFPDjZj6QL2YAs0ic8-51" value="Eventually each domain should have its own set of projects" style="whiteSpace=wrap;html=1;shape=mxgraph.basic.document;fillColor=#fff2cc;strokeColor=#d6b656;align=left;" vertex="1" parent="1">
          <mxGeometry x="280" y="310" width="100" height="100" as="geometry" />
        </mxCell>
        <mxCell id="EXuGL9rm_F_Fx5JCLP6b-1" value="C" style="rounded=0;whiteSpace=wrap;html=1;" vertex="1" parent="1">
          <mxGeometry x="655" y="315" width="25" height="29" as="geometry" />
        </mxCell>
        <mxCell id="EXuGL9rm_F_Fx5JCLP6b-2" value="Q" style="rounded=0;whiteSpace=wrap;html=1;" vertex="1" parent="1">
          <mxGeometry x="714" y="315" width="25" height="29" as="geometry" />
        </mxCell>
        <mxCell id="EXuGL9rm_F_Fx5JCLP6b-4" style="edgeStyle=none;curved=0;rounded=0;orthogonalLoop=1;jettySize=auto;html=1;exitX=0.5;exitY=1;exitDx=0;exitDy=0;entryX=0.6;entryY=0.011;entryDx=0;entryDy=0;entryPerimeter=0;fontSize=12;startSize=8;endSize=8;" edge="1" parent="1" source="XmXFPDjZj6QL2YAs0ic8-10" target="EXuGL9rm_F_Fx5JCLP6b-2">
          <mxGeometry relative="1" as="geometry">
            <Array as="points">
              <mxPoint x="420" y="290" />
              <mxPoint x="730" y="290" />
            </Array>
          </mxGeometry>
        </mxCell>
      </root>
    </mxGraphModel>
  </diagram>
  <diagram id="QKs1fvu8J8mcNGx1uFs7" name="Page-2">
    <mxGraphModel grid="0" page="0" gridSize="10" guides="1" tooltips="1" connect="1" arrows="1" fold="1" pageScale="1" pageWidth="850" pageHeight="1100" math="0" shadow="0">
      <root>
        <mxCell id="0" />
        <mxCell id="1" parent="0" />
      </root>
    </mxGraphModel>
  </diagram>
</mxfile>
